<svg width="80" height="80" viewBox="0 0 80 80" fill="none" xmlns="http://www.w3.org/2000/svg">
<path d="M55.1957 52.857C64.8816 39.4988 63.664 41.1653 63.9431 40.817C67.4695 36.4455 69.3333 31.3003 69.3333 25.9375C69.3333 11.7156 56.2025 0 40 0C23.8503 0 10.6667 11.6925 10.6667 25.9375C10.6667 31.2969 12.5696 36.5767 16.2116 41.0072L24.8039 52.8572C15.6172 54.098 0 57.7956 0 65.9375C0 68.9055 2.20409 73.1352 12.7044 76.4311C20.0363 78.7325 29.73 80 40 80C59.2044 80 80 75.2388 80 65.9375C80 57.7942 64.4011 54.1005 55.1957 52.857ZM20.6665 38.4289C20.6372 38.3886 20.6065 38.3491 20.5746 38.3105C17.544 34.6461 16 30.3033 16 25.9375C16 14.2159 26.7388 4.6875 40 4.6875C53.2336 4.6875 64 14.2202 64 25.9375C64 30.3103 62.4852 34.5058 59.6185 38.0736C59.3616 38.3714 60.7019 36.5414 40 65.092L20.6665 38.4289ZM40 75.3125C19.0233 75.3125 5.33333 69.8933 5.33333 65.9375C5.33333 63.2788 12.3676 58.907 27.9552 57.203L37.7511 70.7128C37.992 71.0451 38.3243 71.3187 38.7174 71.5082C39.1104 71.6977 39.5515 71.7971 39.9998 71.7971C40.4481 71.7971 40.8892 71.6977 41.2823 71.5082C41.6753 71.3187 42.0076 71.0451 42.2485 70.7128L52.0443 57.203C67.6322 58.907 74.6667 63.2788 74.6667 65.9375C74.6667 69.8597 61.0999 75.3125 40 75.3125Z" fill="#008738"/>
<path d="M39.9998 14.2188C32.6478 14.2188 26.6665 19.4758 26.6665 25.9375C26.6665 32.3992 32.6478 37.6562 39.9998 37.6562C47.3518 37.6562 53.3332 32.3992 53.3332 25.9375C53.3332 19.4758 47.3518 14.2188 39.9998 14.2188ZM39.9998 32.9688C35.5886 32.9688 31.9998 29.8145 31.9998 25.9375C31.9998 22.0605 35.5886 18.9062 39.9998 18.9062C44.411 18.9062 47.9998 22.0605 47.9998 25.9375C47.9998 29.8145 44.411 32.9688 39.9998 32.9688Z" fill="#008738"/>
</svg>
