<svg width="80" height="80" viewBox="0 0 80 80" fill="none" xmlns="http://www.w3.org/2000/svg">
<path d="M41.6514 45.3226C38.6629 45.3084 35.6939 44.84 32.8463 43.9334C30.6112 43.1857 28.6146 41.8583 27.0601 40.0869C25.5057 38.3154 24.4492 36.1633 23.9984 33.8501C22.9944 29.0158 24.825 23.9042 29.017 19.8245C29.4673 19.3862 29.9352 18.9663 30.4196 18.5659C32.5342 16.7956 35.0478 15.5665 37.7436 14.9846C40.4393 14.4028 43.2362 14.4857 45.8927 15.2262C48.4404 16.0397 50.674 17.6216 52.2868 19.7549C53.8996 21.8883 54.8126 24.4684 54.9006 27.1413C55.0961 30.2941 54.0683 33.4009 52.0313 35.8153C51.2607 36.7858 50.2375 37.5252 49.0742 37.9523C47.9108 38.3794 46.6523 38.4777 45.4367 38.2365C44.9351 38.1324 44.4597 37.9282 44.0388 37.6361C43.618 37.344 43.2604 36.97 42.9874 36.5366C42.7425 36.1155 42.585 35.6493 42.5245 35.1659C42.4641 34.6825 42.5018 34.1919 42.6354 33.7235C43.8021 29.3158 44.9874 22.6176 44.9994 22.551C45.0299 22.3785 45.094 22.2137 45.1881 22.0661C45.2823 21.9184 45.4046 21.7907 45.5481 21.6903C45.6916 21.5899 45.8535 21.5187 46.0245 21.4809C46.1955 21.443 46.3722 21.4392 46.5447 21.4697C46.7172 21.5002 46.8819 21.5643 47.0296 21.6584C47.1773 21.7526 47.305 21.8749 47.4054 22.0184C47.5058 22.1619 47.577 22.3237 47.6148 22.4947C47.6527 22.6657 47.6565 22.8425 47.626 23.0149C47.5767 23.2936 46.4087 29.8904 45.2141 34.4047C45.172 34.5286 45.1556 34.6598 45.1659 34.7902C45.1762 34.9207 45.213 35.0476 45.2741 35.1634C45.4585 35.4183 45.7367 35.5895 46.0474 35.6393C46.7918 35.7636 47.556 35.6821 48.2574 35.4037C48.9588 35.1252 49.5709 34.6604 50.0273 34.0594C51.6093 32.1671 52.4018 29.7384 52.2406 27.2773C52.177 25.1495 51.4564 23.0936 50.1779 21.3917C48.8993 19.6897 47.1253 18.4251 45.0994 17.7713C42.8675 17.1574 40.5197 17.0958 38.2586 17.5917C35.9975 18.0876 33.891 19.1261 32.1209 20.6178C31.6929 20.9737 31.2756 21.3457 30.8756 21.735C28.8036 23.7509 25.493 27.9346 26.609 33.3075C26.9774 35.1521 27.8215 36.8685 29.0574 38.2866C30.2934 39.7047 31.8785 40.7752 33.6556 41.3922C39.9088 43.3867 48.8953 43.6281 53.6286 37.7418C53.8528 37.4751 54.1725 37.3068 54.5193 37.2729C54.8661 37.2389 55.2124 37.3421 55.484 37.5602C55.7557 37.7784 55.9312 38.0942 55.9729 38.4401C56.0146 38.7861 55.9192 39.1345 55.7072 39.411C52.2059 43.7654 46.878 45.3226 41.6514 45.3226Z" fill="#008738"/>
<path d="M37.0876 38.4099C35.678 38.4346 34.3031 37.9726 33.1943 37.102C30.6357 35.0542 30.565 31.4958 31.2823 29.0733C31.525 28.2667 31.849 27.4867 32.2516 26.7468C33.252 24.7284 34.8516 23.0684 36.8316 21.9938C38.0325 21.3709 39.4019 21.1508 40.7375 21.3659C42.0732 21.581 43.3042 22.22 44.2488 23.1884C45.2109 24.2427 45.9357 25.4912 46.3741 26.8495C46.4843 27.1805 46.4604 27.5416 46.3074 27.8552C46.1544 28.1688 45.8846 28.4099 45.5558 28.5268C45.227 28.6437 44.8655 28.6271 44.5489 28.4805C44.2322 28.3339 43.9857 28.069 43.8621 27.7427C43.546 26.7396 43.0207 25.8148 42.3208 25.0296C41.7706 24.4668 41.0515 24.0993 40.2731 23.9831C39.4946 23.8668 38.6995 24.0082 38.0089 24.3856C36.524 25.2231 35.3306 26.4945 34.5889 28.0294C34.2774 28.6047 34.0259 29.2105 33.8383 29.8372C33.3196 31.5891 33.4343 33.8769 34.8636 35.0209C36.4262 36.2768 39.0635 35.7461 40.5475 34.4662C41.6529 33.4706 42.6026 32.3147 43.3648 31.0372C43.4572 30.8883 43.5779 30.7592 43.7202 30.657C43.8625 30.5549 44.0235 30.4817 44.1941 30.4418C44.3646 30.4019 44.5414 30.3959 44.7142 30.4243C44.887 30.4527 45.0526 30.5148 45.2014 30.6072C45.3503 30.6995 45.4794 30.8203 45.5816 30.9626C45.6838 31.1049 45.7569 31.2659 45.7968 31.4364C45.8367 31.6069 45.8427 31.7837 45.8143 31.9565C45.7859 32.1293 45.7238 32.2949 45.6314 32.4437C44.7277 33.9487 43.6027 35.3091 42.2942 36.4794C40.8363 37.7094 38.9949 38.3922 37.0876 38.4099Z" fill="#008738"/>
<path d="M76.0003 80.0002H4.0014C2.94088 79.9991 1.92409 79.5774 1.17419 78.8275C0.424285 78.0777 0.00252404 77.061 0.0014651 76.0005V26.6709C0.00130663 26.4174 0.0733971 26.1692 0.209287 25.9552C0.345178 25.7413 0.539238 25.5705 0.768723 25.4629C0.998209 25.3553 1.25361 25.3153 1.505 25.3477C1.75639 25.3801 1.99334 25.4834 2.1881 25.6456L34.9022 52.8329C36.3373 54.0186 38.1406 54.6672 40.0022 54.6672C41.8637 54.6672 43.6671 54.0186 45.1021 52.8329L77.8136 25.6443C78.0084 25.482 78.2455 25.3786 78.497 25.3463C78.7485 25.314 79.004 25.3541 79.2335 25.4618C79.4631 25.5696 79.6571 25.7406 79.7929 25.9547C79.9287 26.1689 80.0006 26.4173 80.0002 26.6709V76.0005C79.9991 77.061 79.5774 78.0777 78.8275 78.8275C78.0776 79.5774 77.0608 79.9991 76.0003 80.0002ZM2.66809 29.512V76.0005C2.66809 76.7365 3.26541 77.3337 4.0014 77.3337H76.0003C76.3539 77.3337 76.693 77.1933 76.9431 76.9432C77.1931 76.6932 77.3336 76.3541 77.3336 76.0005V29.512L46.8034 54.8834C44.8897 56.4649 42.4847 57.3303 40.002 57.3308C37.5193 57.3313 35.114 56.4668 33.1996 54.8861L2.66809 29.512Z" fill="#008738"/>
<path d="M1.33591 28.0039C1.05276 28.0044 0.776781 27.9148 0.547959 27.748C0.319137 27.5813 0.149354 27.346 0.0632063 27.0763C-0.0229416 26.8066 -0.0209808 26.5164 0.0688045 26.2479C0.15859 25.9794 0.331537 25.7464 0.562592 25.5827L12.5624 17.0767C12.851 16.8721 13.2089 16.7906 13.5576 16.85C13.9063 16.9093 14.2171 17.1048 14.4217 17.3933C14.6263 17.6819 14.7078 18.0398 14.6484 18.3885C14.5891 18.7372 14.3936 19.048 14.105 19.2525L2.10523 27.7586C1.88056 27.9184 1.61163 28.0041 1.33591 28.0039ZM78.6654 28.0039C78.3896 28.0041 78.1207 27.9184 77.896 27.7586L65.8962 19.2525C65.6107 19.047 65.418 18.7369 65.3601 18.3899C65.3023 18.0428 65.3839 17.687 65.5873 17.3999C65.7906 17.1129 66.0992 16.9178 66.4458 16.8572C66.7924 16.7967 67.1489 16.8756 67.4375 17.0767L79.4373 25.5827C79.6682 25.7463 79.8411 25.979 79.9309 26.2473C80.0208 26.5155 80.0229 26.8054 79.9371 27.075C79.8513 27.3446 79.682 27.5799 79.4536 27.7469C79.2252 27.9139 78.9483 28.0039 78.6654 28.0039ZM52.3204 9.3386C52.0443 9.33885 51.7749 9.25311 51.5498 9.09328L45.1765 4.57362C43.743 3.36202 41.9296 2.69208 40.0527 2.68062C38.1757 2.66917 36.3543 3.31694 34.906 4.51096L28.4528 9.09328C28.1643 9.29784 27.8063 9.3794 27.4576 9.32001C27.1089 9.26063 26.7981 9.06518 26.5935 8.77664C26.3889 8.48811 26.3074 8.13013 26.3668 7.78147C26.4262 7.4328 26.6216 7.122 26.9102 6.91745L33.2834 2.39778C35.1927 0.836662 37.586 -0.0110817 40.0523 0.000109397C42.5186 0.0113005 44.9041 0.880728 46.7992 2.45911L53.0924 6.91745C53.3235 7.08111 53.4964 7.31409 53.5862 7.58261C53.676 7.85114 53.678 8.14128 53.5918 8.41099C53.5057 8.68071 53.3359 8.916 53.1071 9.08277C52.8782 9.24955 52.6023 9.33915 52.3191 9.3386H52.3204ZM2.20123 79.2801C1.92669 79.2806 1.65867 79.1964 1.43378 79.0389C1.2089 78.8814 1.03811 78.6583 0.944758 78.4002C0.851402 78.142 0.840026 77.8613 0.912182 77.5964C0.984339 77.3315 1.13651 77.0954 1.34791 76.9202L31.7741 51.6421C31.9088 51.5302 32.0643 51.446 32.2316 51.3942C32.3989 51.3424 32.5747 51.324 32.7491 51.3402C32.9235 51.3563 33.093 51.4067 33.2479 51.4883C33.4029 51.57 33.5402 51.6814 33.6521 51.8161C33.764 51.9508 33.8482 52.1063 33.9 52.2736C33.9518 52.4408 33.9702 52.6167 33.954 52.7911C33.9379 52.9654 33.8875 53.1349 33.8058 53.2898C33.7242 53.4448 33.6128 53.5821 33.4781 53.694L3.05189 78.9721C2.81307 79.171 2.51207 79.28 2.20123 79.2801ZM77.7987 79.2801C77.4878 79.2803 77.1867 79.1713 76.948 78.9721L46.5219 53.694C46.3837 53.5832 46.2689 53.4461 46.1843 53.2905C46.0997 53.135 46.0469 52.9641 46.029 52.7879C46.0112 52.6117 46.0286 52.4338 46.0803 52.2644C46.132 52.095 46.2169 51.9376 46.3301 51.8014C46.4433 51.6652 46.5824 51.5529 46.7395 51.4711C46.8966 51.3893 47.0683 51.3396 47.2448 51.3249C47.4213 51.3102 47.5989 51.3308 47.7674 51.3855C47.9358 51.4402 48.0917 51.5279 48.2258 51.6434L78.652 76.9216C78.8634 77.0967 79.0156 77.3329 79.0877 77.5978C79.1599 77.8626 79.1485 78.1433 79.0552 78.4015C78.9618 78.6597 78.791 78.8827 78.5661 79.0402C78.3413 79.1977 78.0732 79.2806 77.7987 79.2801Z" fill="#008738"/>
<path d="M66.6668 37.9766C66.3132 37.9766 65.974 37.8361 65.724 37.5861C65.4739 37.336 65.3335 36.9969 65.3335 36.6433V9.34936C65.3295 9.37602 65.2761 9.33869 65.1868 9.33869H14.8143C14.7851 9.33693 14.7559 9.34111 14.7284 9.35096C14.7009 9.36081 14.6757 9.37614 14.6543 9.39602L14.6676 36.6433C14.6676 36.9969 14.5271 37.336 14.2771 37.5861C14.027 37.8361 13.6879 37.9766 13.3343 37.9766C12.9807 37.9766 12.6415 37.8361 12.3915 37.5861C12.1415 37.336 12.001 36.9969 12.001 36.6433V9.33869C12.0219 8.61255 12.3297 7.92429 12.857 7.42454C13.3842 6.9248 14.088 6.65429 14.8143 6.67222H65.1868C65.9131 6.65429 66.6168 6.9248 67.1441 7.42454C67.6714 7.92429 67.9792 8.61255 68.0001 9.33869V36.6433C68.0001 36.9969 67.8596 37.336 67.6096 37.5861C67.3595 37.8361 67.0204 37.9766 66.6668 37.9766Z" fill="#008738"/>
</svg>
