<svg width="200" height="200" viewBox="0 0 200 200" fill="none" xmlns="http://www.w3.org/2000/svg">
<path d="M181.819 54.5455C177.527 54.5522 173.374 56.0767 170.097 58.8495C166.819 61.6222 164.628 65.4645 163.91 69.697H142.425C135.194 69.705 128.262 72.5809 123.149 77.6938C118.036 82.8067 115.16 89.739 115.152 96.9697V159.091C115.152 168.333 111.481 177.197 104.945 183.733C98.41 190.268 89.5461 193.939 80.3036 193.939C71.0611 193.939 62.1972 190.268 55.6618 183.733C49.1264 177.197 45.4549 168.333 45.4549 159.091V136.364C45.4549 136.309 45.4246 136.264 45.4246 136.212C56.1202 135.448 66.1304 130.665 73.4439 122.823C80.7573 114.981 84.8319 104.662 84.8491 93.9394V18.1818C84.8443 14.1649 83.2464 10.3138 80.406 7.47339C77.5655 4.63298 73.7144 3.03511 69.6975 3.0303H57.5762C57.5762 2.22662 57.2569 1.45585 56.6886 0.887555C56.1203 0.319263 55.3495 0 54.5458 0C53.7421 0 52.9714 0.319263 52.4031 0.887555C51.8348 1.45585 51.5155 2.22662 51.5155 3.0303V9.09091C51.5155 9.8946 51.8348 10.6654 52.4031 11.2337C52.9714 11.8019 53.7421 12.1212 54.5458 12.1212C55.3495 12.1212 56.1203 11.8019 56.6886 11.2337C57.2569 10.6654 57.5762 9.8946 57.5762 9.09091H69.6975C72.1078 9.09332 74.4187 10.0519 76.1231 11.7562C77.8275 13.4606 78.786 15.7715 78.7884 18.1818V93.9394C78.7884 103.584 74.9573 112.833 68.1377 119.652C61.3181 126.472 52.0688 130.303 42.4245 130.303C32.7802 130.303 23.5309 126.472 16.7114 119.652C9.89184 112.833 6.06065 103.584 6.06065 93.9394V18.1818C6.06306 15.7715 7.02162 13.4606 8.72599 11.7562C10.4304 10.0519 12.7413 9.09332 15.1516 9.09091H27.2729C27.2729 9.8946 27.5922 10.6654 28.1605 11.2337C28.7288 11.8019 29.4996 12.1212 30.3032 12.1212C31.1069 12.1212 31.8777 11.8019 32.446 11.2337C33.0143 10.6654 33.3336 9.8946 33.3336 9.09091V3.0303C33.3336 2.22662 33.0143 1.45585 32.446 0.887555C31.8777 0.319263 31.1069 0 30.3032 0C29.4996 0 28.7288 0.319263 28.1605 0.887555C27.5922 1.45585 27.2729 2.22662 27.2729 3.0303H15.1516C11.1346 3.03511 7.28356 4.63298 4.44312 7.47339C1.60268 10.3138 0.00481172 14.1649 0 18.1818V93.9394C0.0171505 104.662 4.09181 114.981 11.4052 122.823C18.7186 130.665 28.7289 135.448 39.4245 136.212C39.4245 136.264 39.3942 136.309 39.3942 136.364V159.091C39.3942 169.941 43.7043 180.346 51.3763 188.018C59.0483 195.69 69.4538 200 80.3036 200C91.1534 200 101.559 195.69 109.231 188.018C116.903 180.346 121.213 169.941 121.213 159.091V96.9697C121.219 91.3459 123.456 85.9542 127.433 81.9775C131.41 78.0009 136.801 75.764 142.425 75.7576H163.91C164.49 79.1734 166.034 82.3524 168.36 84.9199C170.686 87.4874 173.698 89.3364 177.04 90.2491C180.382 91.1617 183.916 91.0999 187.224 90.071C190.533 89.0421 193.478 87.0889 195.713 84.4416C197.948 81.7943 199.38 78.5633 199.839 75.1293C200.299 71.6953 199.767 68.2015 198.307 65.0596C196.847 61.9177 194.519 59.2586 191.598 57.3958C188.677 55.533 185.284 54.544 181.819 54.5455ZM181.819 84.8485C179.422 84.8485 177.079 84.1376 175.085 82.8057C173.092 81.4738 171.538 79.5807 170.621 77.3659C169.703 75.151 169.463 72.7138 169.931 70.3625C170.399 68.0113 171.553 65.8515 173.248 64.1563C174.944 62.4611 177.103 61.3067 179.455 60.839C181.806 60.3713 184.243 60.6113 186.458 61.5287C188.673 62.4462 190.566 63.9998 191.898 65.9931C193.23 67.9864 193.941 70.3299 193.941 72.7273C193.938 75.941 192.659 79.0222 190.387 81.2947C188.114 83.5672 185.033 84.8453 181.819 84.8485Z" fill="#008738"/>
<path d="M15.1523 60.6065C15.1523 75.161 38.0767 91.5701 40.6919 93.3944C41.2006 93.7485 41.8055 93.9384 42.4253 93.9384C43.0451 93.9384 43.65 93.7485 44.1586 93.3944C46.7738 91.5701 69.6982 75.161 69.6982 60.6065C69.6982 57.4263 68.6973 54.3268 66.8374 51.7472C64.9776 49.1676 62.353 47.2387 59.3357 46.2339C56.3184 45.2292 53.0614 45.1995 50.0263 46.1491C46.9911 47.0987 44.3319 48.9794 42.4253 51.5247C40.5187 48.9794 37.8594 47.0987 34.8243 46.1491C31.7891 45.1995 28.5321 45.2292 25.5148 46.2339C22.4975 47.2387 19.873 49.1676 18.0131 51.7472C16.1532 54.3268 15.1523 57.4263 15.1523 60.6065ZM39.3949 60.6065C39.3949 61.4102 39.7142 62.181 40.2825 62.7492C40.8508 63.3175 41.6216 63.6368 42.4253 63.6368C43.229 63.6368 43.9997 63.3175 44.568 62.7492C45.1363 62.181 45.4556 61.4102 45.4556 60.6065C45.4556 58.1954 46.4134 55.8831 48.1183 54.1783C49.8232 52.4734 52.1355 51.5156 54.5466 51.5156C56.9576 51.5156 59.27 52.4734 60.9749 54.1783C62.6797 55.8831 63.6375 58.1954 63.6375 60.6065C63.6375 69.4974 49.6435 81.7792 42.4253 87.1701C35.207 81.7792 21.213 69.4974 21.213 60.6065C21.213 58.1954 22.1708 55.8831 23.8757 54.1783C25.5806 52.4734 27.8929 51.5156 30.304 51.5156C32.715 51.5156 35.0274 52.4734 36.7323 54.1783C38.4371 55.8831 39.3949 58.1954 39.3949 60.6065Z" fill="#008738"/>
</svg>
