<svg width="80" height="80" viewBox="0 0 80 80" fill="none" xmlns="http://www.w3.org/2000/svg">
<path d="M24.0945 56.1342C31.7367 63.7666 40.1076 70.6323 49.0873 76.6328C52.9207 79.1926 57.5203 80.3496 62.1082 79.908C66.6961 79.4664 70.9907 77.4535 74.2659 74.2095L77.1444 71.3288C78.9737 69.4815 80 66.9865 80 64.3863C80 61.7861 78.9737 59.291 77.1444 57.4438L70.0297 50.3269C69.0405 49.3633 67.8625 48.6152 66.5698 48.1298C65.2772 47.6444 63.898 47.4322 62.5193 47.5066C61.1406 47.581 59.7922 47.9404 58.5593 48.5622C57.3264 49.1839 56.2357 50.0545 55.3559 51.1189C54.7812 51.6999 54.0251 52.0668 53.2131 52.1586C52.4012 52.2504 51.5823 52.0616 50.8924 51.6236C41.8135 45.8845 34.1275 38.1932 28.3936 29.1092C27.9608 28.4206 27.7765 27.6047 27.8714 26.7969C27.9663 25.9891 28.3347 25.2381 28.9153 24.6686C29.981 23.7896 30.8527 22.6989 31.4753 21.4654C32.0978 20.232 32.4576 18.8827 32.5319 17.503C32.6062 16.1233 32.3933 14.7431 31.9069 13.45C31.4204 12.1568 30.6708 10.9787 29.7057 9.99022L22.591 2.8719C20.7489 1.03286 18.2526 0 15.65 0C13.0474 0 10.5511 1.03286 8.70898 2.8719L5.8291 5.75411C2.59519 8.98271 0.573405 13.2282 0.104755 17.7745C-0.363895 22.3208 0.749274 26.8896 3.2565 30.7104C9.34113 39.8563 16.3216 48.373 24.0945 56.1342ZM7.85002 7.7771C9.95955 5.6669 12.3735 2.64315 15.6507 2.86189C16.5641 2.85997 17.4689 3.03857 18.3132 3.38746C19.1574 3.73634 19.9244 4.24862 20.5701 4.89488L27.6847 12.0146C28.3832 12.7391 28.9209 13.6029 29.2626 14.5496C29.6043 15.4962 29.7423 16.5044 29.6675 17.5081C29.5928 18.5118 29.307 19.4884 28.8289 20.374C28.3507 21.2596 27.691 22.0342 26.893 22.6471C25.8516 23.6741 25.1928 25.0266 25.0262 26.4799C24.8595 27.9333 25.195 29.3999 25.9768 30.6361C31.9367 40.0792 39.9259 48.0748 49.3632 54.0412C50.6004 54.8298 52.0704 55.1706 53.5283 55.0067C54.9862 54.8428 56.344 54.1842 57.3754 53.1405C58.0667 52.2864 58.9349 51.5922 59.92 51.1058C60.9052 50.6194 61.984 50.3522 63.0823 50.3226C63.9963 50.3181 64.9022 50.4947 65.7475 50.8425C66.5929 51.1902 67.3609 51.702 68.0074 52.3485L75.122 59.4654C75.7704 60.1099 76.2845 60.8768 76.6346 61.7214C76.9847 62.5661 77.1638 63.4719 77.1615 64.3863C77.3873 67.6602 74.3174 70.1164 72.245 72.188C69.4379 74.9658 65.7579 76.6886 61.8273 77.0651C57.8967 77.4415 53.9568 76.4484 50.6738 74.2539C32.8345 62.3289 17.5288 46.9926 5.63758 29.1278C3.4937 25.8576 2.54309 21.9478 2.94614 18.058C3.34919 14.1682 5.08122 10.5365 7.85002 7.77567V7.7771ZM40.4877 4.05853C59.5535 3.66108 76.3569 20.4711 75.9581 39.5401C75.9581 39.9192 76.1087 40.2829 76.3767 40.551C76.6448 40.8191 77.0083 40.9697 77.3873 40.9697C77.7664 40.9697 78.1299 40.8191 78.3979 40.551C78.666 40.2829 78.8166 39.9192 78.8166 39.5401C79.2453 18.9357 61.0942 0.773146 40.4949 1.20062C40.1158 1.19986 39.752 1.34976 39.4834 1.61734C39.2148 1.88491 39.0635 2.24826 39.0628 2.62743C39.062 3.0066 39.2119 3.37054 39.4794 3.63919C39.7469 3.90784 40.1101 4.0592 40.4891 4.05996L40.4877 4.05853Z" fill="#008738"/>
<path d="M39.063 26.1167C39.063 26.4959 39.2136 26.8595 39.4816 27.1276C39.7496 27.3957 40.1132 27.5464 40.4922 27.5464C43.6666 27.5618 46.7065 28.83 48.9512 31.0754C51.1958 33.3207 52.4637 36.3616 52.4791 39.537C52.4791 39.9162 52.6297 40.2798 52.8977 40.5479C53.1657 40.816 53.5293 40.9667 53.9083 40.9667C54.2874 40.9667 54.6509 40.816 54.9189 40.5479C55.187 40.2798 55.3375 39.9162 55.3375 39.537C55.3368 35.5988 53.7725 31.8221 50.9886 29.0373C48.2047 26.2526 44.4292 24.6878 40.4922 24.687C40.1132 24.687 39.7496 24.8376 39.4816 25.1058C39.2136 25.3739 39.063 25.7375 39.063 26.1167Z" fill="#008738"/>
<path d="M64.2187 39.5388C64.2187 39.918 64.3692 40.2816 64.6373 40.5497C64.9053 40.8178 65.2688 40.9685 65.6479 40.9685C66.0269 40.9685 66.3905 40.8178 66.6585 40.5497C66.9265 40.2816 67.0771 39.918 67.0771 39.5388C67.373 25.2421 54.783 12.6481 40.4907 12.9441C40.1117 12.9441 39.7482 13.0947 39.4801 13.3628C39.2121 13.6309 39.0615 13.9946 39.0615 14.3737C39.0615 14.7529 39.2121 15.1166 39.4801 15.3847C39.7482 15.6528 40.1117 15.8034 40.4907 15.8034C46.7747 15.8327 52.793 18.3428 57.2365 22.7877C61.68 27.2326 64.1894 33.2528 64.2187 39.5388Z" fill="#008738"/>
</svg>
